<?xml version="1.0" encoding="utf-8"?>
<!-- Generator: Adobe Illustrator 27.5.0, SVG Export Plug-In . SVG Version: 6.00 Build 0)  -->
<svg version="1.1" xmlns="http://www.w3.org/2000/svg" xmlns:xlink="http://www.w3.org/1999/xlink" x="0px" y="0px"
	 viewBox="0 0 500 500" style="enable-background:new 0 0 500 500;" xml:space="preserve">
<g id="BACKGROUND">
</g>
<g id="OBJECTS">
	<path style="fill:#3D4B60;" d="M289.124,85.276c0,0,3.134-1.29,4.24-5.253c1.106-3.963,0.461-6.544-1.382-8.018
		c-1.843-1.475-7.373-7.373-11.244-7.465c-3.871-0.092-9.401,0.369-12.903,5.53c-3.502,5.161-4.239,12.903-4.239,12.903
		s-5.438-1.567-9.217-1.382c-3.779,0.184-13.456-4.055-16.221-4.424c-2.765-0.369-4.24-1.106-6.175,0
		c-1.936,1.106-16.682,13.272-17.05,13.087c-0.369-0.184-2.857-1.567-4.608-2.12s-3.756-1.106-3.756-1.106s0.277-2.696-0.415-3.456
		c-0.691-0.76-1.037-0.553-1.175-0.207c-0.138,0.346,0,3.387,0,3.387l-0.829-0.207v-3.387c0,0-0.968-0.276-1.175,1.313
		c-0.207,1.59-0.76,2.765-0.484,3.318c0.276,0.553,5.046,4.009,5.046,4.009l-2.488-0.346l-3.456-3.041c0,0-0.622-2.696-2.281-2.903
		c0,0-0.553-0.069-0.899,0.277c0,0,2.765,5.323,5.461,7.12c2.696,1.797,10.23,1.866,11.544,1.521
		c1.313-0.346,20.46-10.023,21.705-9.539c1.244,0.484,11.682,4.631,12.788,4.908c0,0-4.908,6.014-7.465,12.995
		c-2.558,6.982-2.074,15.968-5.184,20.253c-3.111,4.286-8.64,5.945-11.267,7.051c-2.627,1.106-8.295,4.147-8.917,11.613
		c-0.622,7.465-0.415,8.295-2.765,9.608c-2.35,1.313-8.71,4.77-12.65,11.682c-3.94,6.912-10.092,7.327-15.76,9.608
		c-5.668,2.281-12.511,7.465-16.106,11.198c-3.594,3.733-8.571,11.544-12.373,12.027c-3.802,0.484-6.567-1.175-7.535-1.521
		c-0.968-0.346-3.525-0.76-3.94,0.76c-0.415,1.521-4.217,17.972-4.493,19.009c-0.276,1.037,1.383,5.53,4.839,5.599
		c3.456,0.069,6.705,0,6.705,0s1.175-2.419-0.968-3.111c-2.143-0.691-2.627-1.59-2.488-2.627c0.138-1.037,10.645-7.327,12.028-9.332
		c1.382-2.005,9.124-6.912,15.207-10.921c6.083-4.009,26.958-13.203,32.557-16.175c5.599-2.972,15.207-8.087,19.562-12.857
		c4.355-4.77,8.502-9.885,8.502-9.885s10.852,2.972,18.249,2.212c7.396-0.76,15.691-0.346,16.244,0.069c0,0-5.253,5.945-5.53,11.82
		c-0.277,5.876-1.313,16.451-3.18,19.286c-1.866,2.834-3.041,3.387-3.041,3.387s-0.484-0.277-1.175,0.622
		c-0.691,0.899-4.562,4.493-4.839,4.908c-0.277,0.415-1.106,2.696,0.277,3.733c1.382,1.037,5.253,4.078,6.014,4.7
		c0.76,0.622,2.281,0.415,4.009,2.281c1.728,1.866,3.111,5.599,5.668,6.359c2.557,0.76,8.571,0.899,9.124,0.415
		c0.553-0.484,0.899-2.557-1.383-4.078c-2.281-1.521-5.461-5.945-5.461-8.364c0-2.419-0.484-5.392,0.069-6.152
		c0.553-0.76-0.276-1.935-1.521-1.521c0,0,0.415-5.322,2.212-9.815c1.797-4.493,10.991-23.226,12.442-26.682
		c1.452-3.456,2.005-9.193-2.005-11.198c-4.009-2.005-23.364-7.88-27.995-9.055c-4.631-1.175-5.599-2.35-5.046-3.733
		c0.553-1.382,2.419-5.668,7.949-8.433c5.53-2.765,5.945-3.94,6.359-5.115c0.415-1.175,2.143-2.627,3.318-2.834
		c1.175-0.207,4.908,1.037,6.912-3.94c2.005-4.977,0.968-12.097,1.037-12.373c0.069-0.276,1.383-2.627,2.834-2.627
		s6.498,2.558,10.991,3.664c4.493,1.106,13.756,2.074,18.041,1.659c4.286-0.415,5.53-0.899,5.737-1.521
		c0.207-0.622-0.138-8.848-1.452-14.516c-1.313-5.668-3.387-15.76-3.18-16.866c0.207-1.106,0.276-3.18-0.276-4.147
		c-0.553-0.968-2.627-5.53-2.834-5.945c-0.207-0.415-1.106-0.346-1.59,0c-0.484,0.346-0.968-0.502-1.935-0.286
		c-0.968,0.217-1.106,0.701-0.899,1.323c0,0-0.899-0.691-1.521-0.346s-0.484,1.175-0.553,1.521
		c-0.069,0.346-0.691-0.207-1.244,0.346c-0.553,0.553-0.83,1.106-0.83,1.59c0,0.484,0.207,1.866-0.276,2.903
		c-0.484,1.037,0.138,2.558,0.829,2.972c0.691,0.415,5.184,1.728,5.806,3.111c0.622,1.382,1.59,8.64,1.106,10.368
		c-0.484,1.728-2.212,6.014-1.244,8.295c0,0-10.299,0.346-11.682-0.138c-1.382-0.484-4.355-2.765-4.355-2.765
		s0.968,0.484,1.244,0.069C289.101,89.515,289.124,85.276,289.124,85.276z"/>
	<path style="fill:#3D4B60;" d="M171.54,73.035c-2.757-4.288-15.62-20.368-23.124-26.34c-7.504-5.972-21.746-11.639-31.853-11.945
		s-10.873-1.531-11.792-1.531c-0.919,0-1.532,1.225-2.603,0.919c-1.072-0.306-1.685-0.306-1.838-0.766
		c-0.153-0.459-5.666-7.351-6.738-9.188c-1.072-1.838-0.459-3.063-3.063-3.675c-2.603-0.613-5.054-0.306-5.054-0.306
		s-0.766-1.991-5.666,0c-4.901,1.991-7.198,4.135-8.882,7.657c-1.685,3.522-2.603,5.36-3.675,7.198s-1.225,4.288-2.603,4.288
		c-1.378,0-0.306,0.766-1.072,0.766s0,1.225,0,1.225h1.378c1.378,1.838,1.378,1.838,1.378,1.838l4.747,0.919
		c0,0,2.144,1.991,2.45,2.91s1.225,1.991,2.144,2.144c0.919,0.153,1.838,0,1.991,1.225c0.153,1.225,1.838,4.441,1.838,4.441
		s0,1.225-0.919,1.838c-0.919,0.612-10.107,5.513-14.395,8.576C59.9,68.288,48.262,79.62,44.739,82.836
		c-3.522,3.216-5.36,5.36-6.738,5.666c-1.378,0.306-5.207,0.459-7.81,1.531c-2.604,1.072-7.045,3.522-7.657,6.432
		c-0.613,2.91-2.144,4.441-2.91,6.279c-0.766,1.838,0.459,2.91,0.919,2.144c0.459-0.766,1.378-1.838,1.378-1.838
		s-1.838,3.828-0.306,3.828c1.531,0,1.685-1.531,2.603-2.603s0.919-1.072,0.919-1.072s0.306,4.441,1.531,3.675
		s1.225-1.991,1.378-2.757c0.153-0.766,0.919-1.378,1.838-1.378c0.919,0,1.225,0.766,4.594-0.153
		c3.369-0.919,5.054-1.991,6.279-4.135c1.225-2.144,2.45-2.297,3.675-3.369c1.225-1.072,19.602-10.567,19.602-10.567
		s-19.143,20.674-21.287,21.44c-2.144,0.766-5.666,1.378-8.882,2.144c-3.216,0.766-5.819,2.45-7.198,2.45s-2.91,2.297-3.675,2.757
		c-0.766,0.459,0.919,0.766,2.144,0c1.225-0.766,3.675-1.838,3.675-1.838l-5.207,4.747c0,0,1.072,1.991,2.91,0
		c1.838-1.991,5.819-4.441,6.279-4.747c0.459-0.306-0.613,2.91,1.072,3.063c1.685,0.153,1.991-1.838,2.45-1.991
		c0.459-0.153,0.612,2.144,2.297,1.838c1.685-0.306,1.685-2.757,2.91-2.45c1.225,0.306,1.072,1.991,3.369,1.838
		c2.297-0.153,3.829,0.459,3.675-1.378c-0.153-1.838,1.225-3.829,1.225-3.829s7.504-0.919,12.711-3.982
		c5.207-3.063,12.558-10.72,16.233-14.395s9.342-6.585,11.945-8.729c2.603-2.144,7.198-6.738,7.198-6.738s-0.306,2.45-1.378,5.819
		c-1.072,3.369-3.982,9.801-3.063,17.305c0.919,7.504,2.757,26.493,2.757,27.565c0,1.072-0.306,1.991-2.297,3.522
		c-1.991,1.531-3.982,2.757-4.901,3.063c-0.919,0.306-8.882,0.613-12.558,0c-3.675-0.613-4.594-1.59-5.819,0.354
		c-1.225,1.943-1.225,3.169,0.306,4.547c1.531,1.378,7.504,4.135,9.035,4.594c1.531,0.459,11.639,1.685,16.692,3.063
		c0.495,0.135,1.021,0.277,1.56,0.42h-55.07v74.733h67.493v-72.572c0.782-0.724,1.178-2.419,1.178-5.951c0-3.829,0-6.432,0-6.432
		s-0.459-1.225-1.378-1.532c-0.919-0.306,0-25.574,1.378-26.953c1.378-1.378,3.675-4.747,3.675-5.207
		c0-0.459,15.62,7.198,19.143,9.188c3.522,1.991,15.773,3.982,21.593,3.369c5.819-0.613,11.333-5.207,15.62-12.404
		C176.134,94.016,174.297,77.323,171.54,73.035z"/>
	<g>
		<g>
			<path style="fill:#3D4B60;" d="M470.479,213.208c-12.38,0-29.14-15.504-44.244-29.477c-3.763-3.481-7.316-6.769-10.777-9.81
				c-20.52-18.033-75.793-42.157-76.337-42.395l1.586-0.581c0.545,0.239,54.747,24.137,75.376,42.266
				c3.47,3.049,7.028,6.341,10.795,9.826c18.113,16.756,38.643,35.751,50.42,27.044c1.235-0.913,1.999-2.337,2.268-4.233
				c2.571-18.106-39.688-72.633-40.108-73.183l0.752-0.574c1.726,2.259,42.919,55.394,40.292,73.89
				c-0.306,2.156-1.194,3.791-2.642,4.861C475.647,212.477,473.165,213.208,470.479,213.208z"/>
		</g>
		<path style="fill:#3D4B60;" d="M434.257,127.388l-0.828-2.897c0,0-1.833-3.725-2.779-4.494c-0.946-0.769-2.01-2.365-2.542-2.956
			c-0.532-0.591-6.386-7.154-7.628-9.638c-1.242-2.483-4.671-9.283-7.391-11.353c0,0,0.059-5.381-1.123-9.342
			c-1.183-3.962-2.247-6.386-2.188-6.918c0.059-0.532,0.946-3.193,0.532-6.681c-0.414-3.488-2.365-6.8-4.08-7.332
			c-1.715-0.532-3.311-1.774-4.612-1.951c-1.301-0.177-2.306-0.296-2.483-0.414c-0.177-0.118-1.537-0.591-2.01-2.306
			c-0.473-1.715-0.946-3.725-1.36-4.848c-0.414-1.123-0.355-3.134-0.355-3.134s2.602-1.715,3.134-2.306
			c0.532-0.591,0.71-1.419,0.414-2.07c-0.296-0.65-0.65-1.36-0.71-1.951c-0.059-0.591-0.65-1.597-0.591-2.069
			c0.059-0.473,0.059-0.709-0.177-1.064c-0.237-0.355-0.473-0.709-0.828-0.946c-0.355-0.236-0.414-0.769-0.414-0.946
			c0-0.177,0.414-0.532,0.414-1.123s0.118-0.65-0.414-1.123c-0.532-0.473-0.887-0.414-0.887-0.414s-0.059-1.005-0.296-1.656
			c-0.237-0.65-0.65-1.182-0.65-1.182s-2.247-3.548-5.203-4.494c-2.956-0.946-5.558-2.129-8.041,0
			c-2.483,2.129-6.031,4.967-6.386,7.45c-0.355,2.483-0.591,8.041,1.301,9.579s4.375,3.784,5.085,5.203
			c0.71,1.419,1.182,2.602,0.118,3.666s-2.365,1.892-4.375,2.247c-2.01,0.355-1.669,1.301-2.372,1.774
			c-0.703,0.473-3.068-0.473-4.605,1.892c-1.537,2.365-4.375,4.848-4.494,6.622c-0.118,1.774,0.828,4.848,0,6.149
			c-0.828,1.301-2.01,5.085-2.365,8.041c-0.355,2.956-0.355,5.321-2.129,7.45c-1.774,2.129-4.257,6.386-4.73,10.288
			c-0.473,3.902-1.064,10.761-1.774,12.653c-0.71,1.892-0.946,3.075-2.365,3.666c-1.419,0.591-4.021,2.365-4.848,2.838
			c-0.828,0.473-1.064,1.183-1.419,2.72c-0.355,1.537-0.946,3.311-0.946,3.311l-6.445,3.134c0,0-0.473,0.473,0.71,1.064
			c1.182,0.591,9.283-3.666,9.283-3.666s-0.177,1.537,0.65,1.833c0.828,0.296,0.65-0.177,0.65-0.177s0.65,0.65,1.596,0.473
			c0.946-0.177,1.36-0.473,1.537-0.591c0.177-0.118,0.591-0.591,0.591-0.591s0.946,0.059,1.419-0.118
			c0.473-0.177,1.064-1.064,1.36-1.36c0.296-0.296,0.177-2.069,0.177-2.069s1.833-2.129,2.188-3.311
			c0.355-1.183,0.473-2.069,1.005-3.015c0.532-0.946,4.991-8.396,6.782-10.82c1.791-2.424,3.21-8.041,4.038-11.057
			c0.828-3.015,3.489-11.353,3.489-11.353s2.897,5.913,3.666,8.101c0.769,2.188,1.123,2.779,1.774,6.208
			c0.65,3.429,0.769,6.918,0.769,6.918s-1.36-0.473-1.774,0.473c-0.414,0.946-3.075,6.8-3.488,7.864
			c-0.414,1.064-2.365,8.219-2.661,11.116c-0.296,2.897-1.064,16.497-0.71,21.522c0.355,5.026,0,10.88,0.118,11.353
			c0.118,0.473,0.769,0.355,1.419,0.296c0.651-0.059,1.064,0.177,1.064-0.887s1.005-3.016,1.005-3.016s1.242,1.182,2.069,1.951
			c0.828,0.769,1.951,1.357,2.424,2.009s0.887,0.534,1.242,0.534s2.01,0.177,2.01,0.177s0.532,3.962,0.237,6.09
			c-0.296,2.129-1.537,5.026-2.779,8.219c-1.242,3.193-2.483,7.805-1.537,13.067c0.946,5.262,3.429,18.98,4.139,20.754
			c0.709,1.774,0.236,3.252-0.059,3.902c-0.296,0.65-0.65,0.946-0.65,0.946s-0.236-0.177-0.71,0.946
			c-0.473,1.123-1.301,2.188-1.537,2.897c-0.236,0.71,0.118,1.301-0.414,1.656c-0.532,0.355-0.887,0.65-1.123,1.419
			c-0.237,0.769,0.414,1.833,0.71,2.365c0.296,0.532,1.596,1.36,1.951,1.183s0.473,0.059,1.064,0.769
			c0.591,0.71,3.784,4.789,4.198,5.262c0.414,0.473,0.473,2.129,3.429,3.015c2.956,0.887,8.633,0.591,10.584,0.532
			c1.951-0.059,1.833-0.414,1.833-0.414s0.591,0.65,3.489,0.828c2.897,0.177,5.026,0.118,5.321,0
			c0.296-0.118,0.532-1.892,0.532-1.892s0.473-1.36-0.355-2.483c-0.828-1.123-2.779-1.833-2.779-1.833s-0.828-2.01-1.656-2.661
			c-0.828-0.65-0.828-0.65-0.828-0.65l-0.887-2.424c0,0-1.892-4.08-2.01-4.848c-0.118-0.769-0.237-0.887-0.177-1.419
			c0.059-0.532,0.355-0.946-0.118-1.183c-0.473-0.236-0.473-0.236-0.473-0.236s-0.414-2.129,0.65-6.977s4.198-15.965,4.789-19.808
			c0.591-3.843,0.65-12.535,1.064-14.072c0.414-1.537,0.828-2.838,0.828-4.257c0-1.419,0.177-6.563,0.177-6.563
			s3.311,0.177,4.08-0.059c0.769-0.236,1.36-0.532,1.242-1.005c-0.118-0.473-0.296-6.208-0.296-9.047
			c0-2.838-0.591-11.412-0.65-14.309c-0.059-2.897-0.473-12.18-0.71-13.481c-0.237-1.301-0.591-6.031-1.36-6.918
			c-0.769-0.887-1.833-1.596-1.833-1.596s1.005-2.247,0.473-2.779c-0.532-0.532-0.828-0.71-1.419-0.769
			c-0.591-0.059,0.059-3.843,0.059-3.843s4.257,5.026,6.386,6.563c2.129,1.537,5.913,4.967,6.09,5.085
			c0.177,0.118,0.118,2.247,0.65,3.075c0.532,0.828-0.414,0.828,0,1.419c0.414,0.591,2.306,2.542,2.602,2.602
			c0.296,0.059,0.414,0.532,0.828,0.769c0.414,0.236,0.946,0.236,1.419,0.118c0.473-0.118,1.123,0.414,1.596,0.532
			c0.473,0.118,1.005-0.236,1.242-0.236s0.237,0.414,0.828,0.769c0.591,0.355,0.887,0.296,1.242,0.118
			c0.355-0.177,0.946-1.419,0.946-1.419l6.327,4.967l1.064-0.777L434.257,127.388z M395.824,174.276
			c-0.355,2.247-2.483,8.987-2.602,11.589c-0.118,2.602-0.71,4.967,0.591,7.923c1.301,2.956,0.828,16.556-0.828,19.749l-0.591,0.591
			c0,0-1.892-4.494-1.774-9.342c0.118-4.849,1.419-14.782,1.537-15.846c0.118-1.064,1.892-15.728,3.666-17.975
			C395.824,170.965,396.179,172.029,395.824,174.276z"/>
	</g>
	<path style="fill:#3D4B60;" d="M314.408,270.956v-1.977h-3.243c0,0-0.158-13.762-1.503-16.688
		c-1.345-2.926-1.266-2.214-3.401-2.214c-2.135,0-5.062,0-5.062,0s-2.847,1.266-2.847,3.875c0,2.61-1.107,15.423-1.107,15.423
		h-0.712v2.768h-14.869c0,0-0.158-2.689-1.186-1.028c0,0-0.949-1.819-2.214-1.107c0,0-0.949-0.949-2.056,0.079
		c0,0-1.582-1.582-2.926,0.949c0,0-0.949-0.316-1.661,0.395l-0.474,0.791l-87.553,0.791c0,0-0.633-0.791-1.503-0.791
		c-0.87,0-1.424-0.712-1.424-0.712s-1.107-1.186-1.74-1.107c-0.633,0.079-0.949,0.87-0.949,0.87s-0.633-0.791-1.503-0.633
		c-0.87,0.158-0.633,0.791-0.633,0.791s-0.949-0.554-1.503-0.237c-0.554,0.316-0.395,0.712-0.395,0.712s-0.949-0.316-1.661,0.079
		c-0.712,0.395-0.395,1.028-0.395,1.028h-13.524c0,0-0.237-12.338-1.977-17.004c-1.74-4.666-3.401-3.954-4.825-3.954s-5.22,0-5.22,0
		s-3.322,1.344-3.322,4.508c0,3.164-1.107,14.473-1.107,14.473h-1.503v1.819l-28.631,0.554c0,0-1.582,3.164,0,5.22h30.212
		c0,0,1.424,13.445,2.847,17.084c1.424,3.638,2.689,3.638,6.327,3.638c3.638,0,5.378-2.531,6.327-6.011
		c0.949-3.48,1.266-16.925,1.266-16.925h12.813c0,0-0.237,2.294,0.633,3.164c0,0-0.158,1.345,0.633,2.214
		c0.791,0.87,2.61,3.717,3.085,4.587c0.474,0.87,5.378,8.858,7.118,10.598c0,0,4.904,4.745,7.118,6.485
		c2.215,1.74,3.085,2.847,3.322,4.034c0.237,1.186,1.74,4.113,3.48,6.564c1.74,2.452,3.954,4.587,5.299,5.378
		c1.345,0.791,2.689,0.633,3.085,2.689c0.395,2.056,1.107,7.909,4.192,15.818c3.085,7.909,1.977,9.095,3.243,11.863
		c1.266,2.768,3.559,5.615,3.085,6.327c-0.475,0.712-0.158,0.87-0.87,0.554c-0.712-0.316-5.378-4.35-10.993-4.508
		s-7.355,0.158-9.333,1.74c-1.977,1.582-2.768,3.954-2.61,5.536c0.158,1.582,0.395,2.689,0.158,4.429
		c-0.237,1.74,0.712,6.881,2.056,10.835c1.344,3.955,4.824,11.073,5.378,13.524c0,0-1.186,0.949-1.107,1.424
		c0.079,0.475,0.475,1.107,0.475,1.107s-0.949,1.819-1.898,2.531c-0.949,0.712,0.395,1.345,0.079,2.215
		c-0.317,0.87-1.977,2.294-2.689,3.164c-0.712,0.87-0.633,2.135-0.237,3.085c0,0-0.949,1.345,0.237,1.661
		c1.186,0.316,6.564,0.475,7.355,0.396c0.791-0.079,2.61-0.554,2.768-1.107c0.158-0.554,0.079-0.87,0.079-0.87
		s2.531-0.237,2.926-0.554c0.396-0.316,0.475-2.452,0.396-2.768c-0.079-0.316-0.079-0.316-0.079-0.316s0.079-1.266,0.079-1.819
		c0-0.554-0.079-0.633-0.158-0.949c-0.079-0.316-0.079-2.689-0.237-3.164c-0.158-0.475,0.949-0.712-1.186-2.373
		c0,0,0-2.689-0.475-5.141c-0.475-2.452-1.028-4.192-0.791-5.141c0.237-0.949,1.819-4.034,0.712-7.83c0,0,3.955,2.294,6.564,4.429
		c2.61,2.135,8.304,1.661,10.282,1.186c1.977-0.475,7.593-1.265,10.045-0.87c2.452,0.395,9.886,1.582,12.733,0.87
		c2.847-0.712,6.802-2.768,6.802-2.768l0.554-0.633c0,0-0.712,2.452,0,4.034c0.712,1.582,1.345,3.243,1.028,4.983
		c-0.316,1.74-0.475,6.169-0.475,6.96s-0.474,0.633-0.949,1.582c-0.475,0.949-0.554,1.74-0.554,2.373s0.079,1.345,0.079,1.345
		s-0.554,1.898,0.158,2.61c0,0-0.395,0.475-0.395,0.949c0,0.475,0.079,2.135,0.633,2.373c0.554,0.237,2.135,0.079,2.294,0.712
		c0.158,0.633,0.079,1.503,2.61,1.582c2.531,0.079,7.197,0,7.435-0.079c0.237-0.079,1.186-0.87,0.554-1.74
		c0,0,0.554-2.531-0.316-3.243c-0.87-0.712-3.559-3.796-3.954-4.508c-0.396-0.712-0.87-2.768-0.791-3.164
		c0.079-0.395,0.316-1.424-0.712-2.215c0,0,0.396-1.661,1.74-5.141c1.345-3.48,4.587-11.31,4.983-15.976
		c0.396-4.666,1.028-9.807-1.424-11.863c-2.452-2.056-3.401-3.322-6.327-3.401c-2.926-0.079-11.547,2.61-13.208,3.638
		c-1.661,1.028-1.265,0.158-1.424-0.395c-0.158-0.554-0.079-2.135-0.079-2.135s1.265-4.113,1.028-6.96c0,0,2.056-2.61,2.215-7.118
		c0,0-0.158-2.452,0.791-4.508c0.949-2.056,2.135-8.858,2.135-11.468c0-2.61,0.87-2.926,2.373-3.559
		c1.503-0.633,5.932-3.085,8.621-8.542c2.689-5.457,3.005-6.169,4.271-7.118c1.266-0.949,3.559-3.638,4.587-4.35
		c1.028-0.712,2.926-3.085,3.717-4.271c0.791-1.186,5.378-9.174,5.536-9.491c0.158-0.317,0.158,0,0.712-1.028
		c0.554-1.028,3.085-6.09,3.243-7.039c0.158-0.949-0.158-2.926-0.158-2.926l13.366-0.158v2.531l1.028,0.158
		c0,0,0.475,15.106,0.949,16.688c0.475,1.582,1.186,2.61,2.214,2.61c1.028,0,7.118,0,7.118,0s1.898-0.554,1.898-2.452
		c0-1.898,1.661-16.214,1.661-16.214h3.085v-2.056h29.105v-5.062H314.408z M272.451,282.938c-0.316,0.435-2.808,3.757-3.836,4.429
		c-1.028,0.672-3.757,2.887-5.615,4.587c-1.859,1.7-3.994,4.627-4.508,5.378c-0.514,0.751-1.859,2.571-3.203,3.796
		c-1.345,1.226-5.892,6.841-5.892,6.841s-0.83,0.554-4.034,1.779c-3.203,1.226-7.276,5.378-7.474,5.22
		c-0.198-0.158-2.294-0.751-2.294-0.751c0.356-0.791,0.672-2.531,0.672-2.531c0.356,0.198,0.514-0.198,0.751-0.514
		c0.237-0.316,0.554-1.7,0.672-2.57c0.119-0.87,0.751-1.344,0.712-2.491c-0.04-1.147-1.107-1.147-1.107-1.147
		s0.395-1.186,0.554-1.661c0.158-0.474,0-0.474,0-0.712s0.158-0.712,0.079-1.028c-0.079-0.316-0.554-2.926-0.554-2.926l-0.633-1.819
		l-0.554-1.305l-0.87-0.514l-0.791-0.87c0,0-0.633-0.396-1.107-0.554c-0.475-0.158-1.503-0.475-1.503-0.475l-1.503-0.316
		c0,0-0.712-0.158-1.265-0.158c-0.554,0-1.265-0.079-1.265-0.079l-1.186-0.316c0,0-0.712,0-1.107,0.237
		c-0.395,0.237-0.87,0.158-1.503,0.396c-0.633,0.237-1.186,0.553-1.898,0.791c-0.712,0.237-0.87,0.791-0.87,0.791
		s-0.475,0.395-1.107,1.068c-0.633,0.672-0.554,0.514-0.87,0.83c-0.316,0.316-0.949,2.768-1.028,3.48
		c-0.079,0.712-0.237,2.768-0.237,2.768s0.158,0.475,0.237,0.87c0.079,0.396,0.158,0.87,0.395,1.344
		c0.237,0.475,0.316,1.424,0.316,1.424c-1.028-0.791-1.265,0.237-0.475,1.819c0.791,1.582,0.554,1.819,1.107,3.322
		c0.554,1.503,1.186,0.87,1.186,0.87l0.475,1.898l-2.847,0.554c0,0-0.475-0.712-4.113-3.164c-3.638-2.452-6.723-2.689-6.96-2.926
		c-0.237-0.237-6.96-8.067-7.751-8.542c-0.791-0.475-2.768-3.085-3.717-4.825c-0.949-1.74-5.22-5.615-7.514-6.643
		c-2.294-1.028-3.559-2.056-4.587-3.164c-1.028-1.107-3.954-6.011-3.954-6.011s0.237-0.475,1.028-1.186
		c0.791-0.712,1.819-1.898,1.819-1.898l0.237-0.237l88.818-1.147c0,0,0.712,1.068,1.107,1.661c0.395,0.593,2.056,1.147,2.056,1.147
		S272.767,282.503,272.451,282.938z"/>
	<path style="fill:#3D4B60;" d="M138.801,433.331c-4.947-2.923-8.662-3.598-9.953-6.072c-1.291-2.474-1.81-3.373-1.81-3.373
		s7.94-26.31,9.514-34.405c1.574-8.095,2.024-13.942-2.699-17.09c-4.722-3.148-5.397-4.273-13.267-3.373
		c-7.87,0.9-13.492,4.722-13.492,4.722s2.473-9.22,2.473-11.468s0.45-9.669,0.45-11.918c0-2.249,1.799-12.818-4.497-16.415
		c-6.296-3.598-10.885-7.871-13.763-8.095c-2.878-0.225-2.878-0.225-2.878-0.225v-10.656c0,0,2.832-0.587,2.878-1.936
		c0.046-1.349-0.495-6.746,0-8.995c0.495-2.249-2.428-8.995-6.026-11.019c-3.598-2.024-5.172-1.349-5.172-1.349
		s-2.474-1.574-3.823,0c-1.349,1.574-6.296,5.172-7.646,7.87c-1.349,2.698-1.799,5.397-1.124,7.646
		c0.675,2.249,1.349,3.823,1.349,3.823s-1.349,2.748,0.225,3.96c1.574,1.212,2.698,0.987,2.698,2.111
		c0,1.124-0.675,7.646-0.675,7.646s-0.395,0.675-3.908,2.698c-3.513,2.024-10.484,6.746-11.608,7.421
		c-1.124,0.674-4.947,3.373-5.172,7.421c-0.225,4.048,1.349,9.669,1.349,11.019c0,1.349-0.899,10.344,0.225,14.392
		c1.124,4.048,1.124,8.095,1.124,8.095s-9.894-4.722-16.64-4.497c-6.746,0.225-13.042,5.622-13.267,9.669
		c-0.225,4.048,1.574,11.461,4.497,19.11c2.923,7.649,8.77,24.515,8.77,24.515s-0.899,0.899-2.249,2.698
		c-1.349,1.799-7.646,5.622-9.669,6.746s-3.226,2.923-3.524,5.172c-0.298,2.249,1.501,1.799,4.199,1.799
		c2.699,0,8.77,0.45,10.344-1.349c1.574-1.799,8.77-6.746,10.569-8.095c1.799-1.349,0.9-4.272,0.45-5.847
		c-0.45-1.574-2.698-28.109-2.698-28.109s4.947,5.847,11.019,6.296c0,0,1.124,4.048,2.249,6.746
		c1.124,2.698,2.249,5.397,4.048,6.296c1.799,0.9,2.923,1.349,2.923,1.349s2.851,7.646,15.03,7.646c0,0,6.108,0.45,9.031-2.249
		c0,0,1.525-0.9,4.585-3.148c3.06-2.249,6.883-6.521,6.883-6.521c1.124-2.024,2.923-10.344,2.923-10.344s7.87-2.249,14.617-8.095
		v31.482c0,0-1.799,1.799-2.024,3.823c-0.225,2.024-0.225,10.219,0.45,10.169c0.675-0.05,2.624-0.579,8.995,0
		c3.33,0.302,4.048,1.974,9.444,1.974c5.397,0,7.87,0,7.87-1.349C142.399,440.302,143.748,436.254,138.801,433.331z"/>
	<path style="fill:#3D4B60;" d="M478.527,425.78c-0.192-2.396-2.108-5.749-2.587-6.324c-0.479-0.575-1.725-0.862-1.725-0.862
		s-6.612-16.578-7.283-19.069c-0.671-2.491-1.821-5.558-4.216-6.708s-7.378-5.749-7.378-5.749s0.096-0.383-0.096-0.958
		c-0.192-0.575-0.862-0.767-1.246-1.821c-0.383-1.054-7.187-20.027-7.187-20.506c0-0.479,0.671-0.862,0.192-2.3
		c-0.479-1.437-0.479-2.108-0.479-2.875c0-0.767,0.288-1.725-0.192-2.3c-0.479-0.575,0.192-2.108-1.054-4.695
		c-1.246-2.587-2.204-4.025-2.779-4.791c-0.575-0.767-1.246-1.629-2.204-2.012s-0.958-0.383-0.958-0.383s-0.671-1.054-1.533-1.437
		c-0.862-0.383-0.767-0.958-1.054-1.15c-0.287-0.192-1.533-3.162-1.246-6.42s0.575-6.324,0.575-6.324s4.216-0.479,5.654-0.479
		c1.437,0,2.012-0.383,2.204-1.725c0.192-1.342,0.958-2.683,0.575-4.12c-0.383-1.437-1.917-5.174-2.491-6.612
		c-0.575-1.437-1.629-3.162-3.066-4.312c-1.437-1.15-1.821-1.15-2.3-2.396c-0.479-1.246-1.246-6.133-3.45-7.762
		c-2.204-1.629-4.216-1.533-4.216-1.533s-1.054-1.533-3.833-2.395c-2.779-0.863-4.216-1.821-4.695-2.492
		c-0.479-0.671-1.437-3.258-1.15-4.504c0.288-1.246,0.575-2.875,0.575-2.875s1.533-8.624-2.683-11.691
		c-4.216-3.066-5.558-2.108-7.283-1.916c-1.725,0.192-4.025,1.341-5.174,1.725c-1.15,0.383-2.108,0.767-2.875,1.15s0,2.875,0,2.875
		s-1.725,4.025-1.725,4.983c0,0.958-0.767,1.342,0,1.917c0.767,0.575,0.767,0.575,0.767,0.575s-1.342,2.827-1.342,3.258
		c0,0.431,0.048,1.15,0.575,1.246c0.527,0.096,1.198,0,1.198,0s0.24,0.815,0.048,1.198c-0.192,0.383-0.288,0.671,0,0.862
		c0.287,0.192,0.287,0.192,0.287,0.192s-0.239,0.479,0.048,0.862c0.288,0.383,0.431,0.623,0.335,1.15
		c-0.096,0.527,0.335,2.444,1.102,2.827c0.767,0.383,4.743,0.383,4.743,0.383s2.06,4.456,2.348,5.079
		c0.287,0.623-1.533-0.144-2.635,0.958c-1.102,1.102-2.108,2.012-2.108,2.012s-11.355-8.768-17.296-10.876
		c-5.941-2.108-12.601-4.887-13.128-4.983c-0.527-0.096-1.054-0.288-1.293,0.575c-0.24,0.862-1.246,0.096-1.917,0.048
		c-0.671-0.048-0.431-0.144-1.15,0.671c-0.719,0.814-2.348,2.108-2.204,2.731c0.144,0.623-0.096,1.581-0.527,2.108
		c-0.431,0.527-1.341,0-2.252,0.335c-0.91,0.335-1.964,1.006-2.97,2.97c-1.006,1.964-4.312,6.372-5.079,7.235
		c-0.767,0.862-8.289,12.505-11.068,16.146c-2.779,3.641-15.811,25.441-18.398,30.137c-2.587,4.695-11.69,23.525-14.517,28.412
		c-2.827,4.887-7.762,14.853-7.618,15.38c0.144,0.527,0.767,0.048,0.431,0.575c-0.335,0.527-3.258,6.276-3.306,7.043
		c-0.048,0.767-1.869,3.45-2.635,5.222c-0.767,1.773,0.096,2.204,0,2.396c-0.096,0.191-0.479,2.348-1.15,3.785
		c-0.671,1.437-2.683,5.174-2.875,6.085c-0.192,0.91-0.096,1.102,0.431,1.15c0.527,0.048,0.958,0.814,0.958,0.814
		s-2.06,3.737-1.821,4.312c0.24,0.575,1.581,1.198,2.204,1.917c0.623,0.719,11.355,7.091,16.626,10.924
		c5.27,3.833,19.836,3.641,21.848,4.599c2.012,0.958,5.462,0,7.378-0.096c1.916-0.096,4.983-4.983,5.749-6.803
		c0.766-1.821,0.862-2.396,2.108-2.875c1.246-0.479,3.546-0.767,5.558-3.546s4.504-9.774,5.654-10.445
		c1.15-0.671,2.683-2.396,2.97-3.258c0.288-0.862,2.971-1.054,3.45-2.012c0.479-0.958,3.45-6.324,4.312-8.816
		c0.862-2.491,2.396-4.312,2.491-4.791c0.096-0.479-0.575-0.479,0-1.054c0.575-0.575,0.958-0.479,1.437-1.054
		c0.479-0.575,2.3-6.037,3.258-6.228c0.958-0.192,1.246,0.575,1.725-0.192c0.479-0.767,4.121-6.324,4.025-7.378
		c-0.096-1.054-0.192-2.971,0.575-4.12c0.767-1.15,3.641-5.558,4.025-6.516c0.383-0.958,2.779-6.229,3.45-6.612
		c0.671-0.383,1.437-0.192,1.725-0.767c0.288-0.575,2.491-5.558,2.3-6.324c-0.192-0.767-1.46-1.054-0.874-1.917
		c0.586-0.862,3.844-5.845,3.844-6.612c0-0.767-0.575-0.287,0.096-1.821c0.671-1.533,1.725-4.12,2.683-4.983
		c0.958-0.862,1.437-0.767,1.437-0.767s1.341-4.504,1.533-5.558c0.192-1.054-0.862-1.246-0.671-1.916
		c0.192-0.671,0.862-1.437,1.054-2.587c0.192-1.15-0.096-1.629,0.192-2.3c0.287-0.671,0.671,0,0.671,0s0.479,2.3,0.862,3.45
		s-0.288,3.546,0.671,5.462c0.958,1.917,1.437,2.396,2.012,3.641c0.575,1.246,0.767,2.587,0.767,2.587s-2.683-0.383-3.066,1.15
		c-0.383,1.533-0.767,2.683-1.629,3.833c-0.862,1.15-1.725,1.437-2.875,3.066s-1.533,1.533-2.3,2.779
		c-0.767,1.246-2.108,2.779-2.971,3.929c-0.862,1.15-4.312,7.187-5.174,8.624c-0.862,1.437-4.695,8.337-5.27,9.199
		c-0.575,0.863-1.054,3.066,0.575,5.27c1.629,2.204,2.396,4.12,3.162,7.187c0.767,3.066,3.066,7.474,5.462,11.882
		s6.037,10.541,6.516,11.882c0.479,1.342,0.287,3.45,0.287,3.737c0,0.287-0.767,0.862-0.671,1.629
		c0.096,0.767,0.096,2.012,0.096,2.012s-1.917,1.725-2.012,3.546c-0.096,1.821-0.192,2.204-0.767,2.683
		c-0.575,0.479-1.246,0.767-2.012,1.725c-0.767,0.958-1.437,1.342-1.437,1.342s-1.054-0.958-1.725,0.287s-0.693,3.258,0.659,3.258
		c1.353,0,9.306,0,9.306,0s3.45-2.396,5.366-4.887c1.917-2.491,2.587-2.971,4.6-4.216c2.012-1.246,3.258-2.683,3.833-3.833
		c0.575-1.15,1.725-3.066,0.383-3.737c-1.342-0.671-2.587-1.341-3.258-1.629c-0.671-0.288-2.204-1.342-2.491-2.108
		s-0.383-1.15-1.246-0.958c0,0-3.929-9.87-3.929-11.69c0-1.821,0.958-6.708-1.15-10.637c-2.108-3.929-5.366-8.528-5.366-8.528
		s1.437-0.192,3.641,0.383c2.204,0.575,9.103,2.3,9.103,2.3l5.32-8.241l7.999,13.128c0,0,3.737,0.096,7.953-0.575
		c4.216-0.671,7.283-1.917,7.283-1.917s1.821,2.779,3.737,3.833s3.45,1.821,6.708,6.708s9.966,12.361,10.445,13.99
		s1.054,4.791,1.054,4.791s-0.767,0-0.479,1.246c0.288,1.246-0.767,4.025-1.246,4.983c-0.479,0.958-1.629,1.917-1.533,2.587
		c0.096,0.671,0,1.342-0.479,1.725c-0.479,0.383-2.3,1.054-2.587,2.012c-0.288,0.958-2.491,2.396-0.096,3.354
		c2.396,0.958,13.415,1.054,13.799,0.096c0.383-0.958-0.383-4.887,0.767-6.708C476.707,429.708,478.719,428.175,478.527,425.78z"/>
</g>
<g id="DESIGNED_BY_FREEPIK">
	<g>
		<g>
			<path style="fill:#3D4B60;" d="M175.869,475.58c-0.14-0.17-0.34-0.25-0.61-0.25c-0.27,0-0.47,0.09-0.62,0.27
				c-0.14,0.19-0.21,0.46-0.21,0.82v2.6c-0.33-0.359-0.67-0.63-1.02-0.81c-0.35-0.17-0.77-0.26-1.28-0.26
				c-0.87,0-1.58,0.31-2.12,0.92c-0.53,0.62-0.8,1.47-0.8,2.57c0,0.52,0.07,1,0.2,1.449c0.14,0.45,0.33,0.841,0.6,1.17
				c0.26,0.33,0.57,0.58,0.93,0.761c0.35,0.18,0.74,0.27,1.16,0.27c0.32,0,0.62-0.05,0.88-0.14c0.27-0.08,0.52-0.21,0.75-0.38
				c0.23-0.17,0.46-0.391,0.7-0.66v0.17c0,0.32,0.08,0.57,0.23,0.75c0.16,0.17,0.36,0.26,0.6,0.26c0.24,0,0.44-0.09,0.6-0.25
				c0.15-0.17,0.23-0.42,0.23-0.76v-7.75C176.089,476,176.019,475.75,175.869,475.58z M174.099,482.75
				c-0.15,0.33-0.35,0.58-0.61,0.74c-0.25,0.16-0.54,0.24-0.84,0.24c-0.31,0-0.59-0.091-0.85-0.261c-0.26-0.17-0.46-0.42-0.61-0.75
				c-0.14-0.34-0.22-0.739-0.22-1.22c0-0.45,0.07-0.85,0.21-1.19c0.14-0.34,0.34-0.6,0.59-0.779c0.25-0.181,0.54-0.28,0.86-0.28
				c0.31,0,0.6,0.09,0.86,0.27c0.26,0.181,0.46,0.44,0.61,0.771c0.16,0.34,0.23,0.74,0.23,1.21
				C174.329,482,174.259,482.41,174.099,482.75z"/>
			<path style="fill:#3D4B60;" d="M182.919,482.67c-0.17,0-0.3,0.04-0.39,0.12c-0.22,0.2-0.4,0.37-0.53,0.49
				c-0.14,0.12-0.29,0.229-0.45,0.34c-0.17,0.1-0.33,0.18-0.51,0.23c-0.17,0.051-0.36,0.07-0.57,0.07c-0.32,0-0.6-0.08-0.86-0.229
				c-0.26-0.15-0.47-0.381-0.63-0.69c-0.16-0.3-0.24-0.66-0.24-1.05h3.44c0.46,0,0.81-0.07,1.07-0.2c0.25-0.13,0.38-0.42,0.38-0.86
				c0-0.479-0.13-0.939-0.37-1.399c-0.24-0.46-0.61-0.84-1.11-1.13c-0.49-0.29-1.08-0.431-1.76-0.431c-0.53,0-1.01,0.08-1.44,0.25
				c-0.44,0.17-0.8,0.42-1.1,0.73c-0.29,0.32-0.52,0.7-0.67,1.149c-0.16,0.44-0.24,0.921-0.24,1.44c0,1.1,0.32,1.98,0.94,2.62
				c0.63,0.64,1.51,0.97,2.64,0.97c0.49,0,0.93-0.07,1.31-0.2c0.38-0.13,0.69-0.29,0.94-0.479c0.25-0.2,0.44-0.4,0.57-0.61
				c0.12-0.22,0.18-0.399,0.18-0.56c0-0.181-0.05-0.32-0.16-0.42C183.239,482.72,183.099,482.67,182.919,482.67z M179.249,479.6
				c0.28-0.3,0.64-0.449,1.08-0.449c0.46,0,0.83,0.149,1.11,0.449c0.28,0.301,0.44,0.75,0.49,1.351h-3.19
				C178.799,480.36,178.969,479.91,179.249,479.6z"/>
			<path style="fill:#3D4B60;" d="M189.919,481.93c-0.18-0.25-0.44-0.47-0.79-0.649c-0.34-0.19-0.79-0.351-1.33-0.48
				c-0.46-0.109-0.82-0.21-1.08-0.28c-0.27-0.079-0.47-0.18-0.63-0.3c-0.15-0.109-0.23-0.27-0.23-0.45c0-0.199,0.1-0.369,0.31-0.51
				c0.22-0.13,0.48-0.2,0.8-0.2c0.31,0,0.55,0.051,0.73,0.16c0.18,0.101,0.34,0.24,0.47,0.41c0.16,0.2,0.31,0.36,0.43,0.46
				c0.13,0.101,0.28,0.16,0.46,0.16c0.25,0,0.45-0.07,0.58-0.2c0.14-0.13,0.2-0.29,0.2-0.49c0-0.19-0.06-0.38-0.19-0.569
				c-0.12-0.19-0.31-0.37-0.55-0.53c-0.24-0.16-0.54-0.28-0.91-0.38c-0.36-0.09-0.77-0.14-1.22-0.14c-0.58,0-1.08,0.09-1.49,0.279
				c-0.41,0.19-0.72,0.44-0.93,0.75c-0.21,0.311-0.31,0.65-0.31,1c0,0.391,0.11,0.73,0.34,1c0.23,0.271,0.53,0.49,0.91,0.65
				c0.38,0.16,0.87,0.32,1.48,0.47c0.53,0.13,0.92,0.271,1.15,0.41c0.24,0.14,0.35,0.37,0.35,0.67c0,0.21-0.11,0.38-0.33,0.54
				c-0.23,0.16-0.52,0.24-0.87,0.24c-0.43,0-0.78-0.08-1.03-0.23c-0.25-0.16-0.46-0.39-0.65-0.71c-0.08-0.16-0.18-0.29-0.28-0.38
				c-0.1-0.09-0.24-0.13-0.42-0.13c-0.21,0-0.39,0.07-0.52,0.2c-0.14,0.14-0.21,0.31-0.21,0.5c0,0.29,0.11,0.58,0.32,0.87
				c0.22,0.29,0.55,0.529,1,0.729c0.45,0.19,0.99,0.29,1.62,0.29c0.66,0,1.22-0.09,1.68-0.27c0.47-0.181,0.82-0.44,1.05-0.79
				c0.24-0.34,0.35-0.761,0.35-1.24C190.179,482.47,190.099,482.18,189.919,481.93z"/>
			<path style="fill:#3D4B60;" d="M192.599,478.21c-0.17-0.18-0.38-0.27-0.64-0.27c-0.26,0-0.47,0.09-0.63,0.27
				c-0.16,0.17-0.24,0.43-0.24,0.78v5.029c0,0.341,0.08,0.601,0.24,0.79c0.16,0.181,0.37,0.28,0.63,0.28c0.26,0,0.47-0.09,0.64-0.27
				c0.17-0.181,0.25-0.45,0.25-0.801v-5.079C192.849,478.63,192.769,478.38,192.599,478.21z M192.579,475.62
				c-0.17-0.14-0.37-0.22-0.6-0.22c-0.24,0-0.44,0.08-0.62,0.25c-0.18,0.159-0.27,0.359-0.27,0.609c0,0.28,0.09,0.49,0.26,0.641
				c0.18,0.149,0.39,0.22,0.63,0.22c0.24,0,0.44-0.07,0.61-0.22c0.17-0.16,0.26-0.37,0.26-0.641
				C192.849,475.98,192.759,475.77,192.579,475.62z"/>
			<path style="fill:#3D4B60;" d="M200.379,478.27c-0.11-0.22-0.34-0.329-0.68-0.329c-0.23,0-0.43,0.09-0.58,0.25
				c-0.15,0.17-0.22,0.409-0.22,0.71v0.239c-0.31-0.409-0.65-0.71-1.02-0.899c-0.36-0.19-0.79-0.29-1.29-0.29
				c-0.42,0-0.8,0.08-1.15,0.229c-0.35,0.141-0.65,0.36-0.92,0.66c-0.26,0.29-0.47,0.65-0.61,1.07c-0.15,0.43-0.22,0.899-0.22,1.43
				c0,0.71,0.12,1.33,0.36,1.87c0.23,0.54,0.57,0.96,1.01,1.26c0.44,0.311,0.95,0.46,1.54,0.46c0.49,0,0.91-0.1,1.27-0.3
				c0.35-0.2,0.66-0.49,0.93-0.86c-0.01,0.57-0.02,0.99-0.04,1.25c-0.01,0.261-0.07,0.5-0.17,0.73c-0.1,0.23-0.28,0.4-0.53,0.53
				c-0.25,0.13-0.6,0.189-1.06,0.189c-0.22,0-0.42-0.02-0.59-0.06c-0.17-0.04-0.32-0.101-0.44-0.19c-0.12-0.08-0.24-0.18-0.34-0.3
				c-0.1-0.12-0.2-0.24-0.29-0.35c-0.19-0.23-0.42-0.34-0.68-0.34c-0.2,0-0.38,0.069-0.52,0.199c-0.15,0.141-0.22,0.311-0.22,0.53
				c0,0.28,0.13,0.55,0.38,0.82c0.26,0.27,0.63,0.489,1.1,0.66c0.48,0.17,1.02,0.25,1.63,0.25c0.66,0,1.21-0.06,1.65-0.2
				c0.45-0.13,0.81-0.33,1.08-0.61c0.28-0.27,0.48-0.62,0.6-1.04c0.12-0.42,0.19-0.92,0.19-1.51v-5.1
				C200.549,478.81,200.489,478.49,200.379,478.27z M198.589,482.68c-0.16,0.311-0.37,0.551-0.63,0.7
				c-0.26,0.16-0.54,0.24-0.83,0.24c-0.49,0-0.9-0.18-1.21-0.55c-0.31-0.36-0.46-0.9-0.46-1.61c0-0.71,0.15-1.25,0.45-1.63
				c0.3-0.38,0.7-0.58,1.21-0.58c0.51,0,0.93,0.2,1.24,0.6c0.32,0.4,0.48,0.96,0.48,1.681
				C198.839,481.98,198.749,482.36,198.589,482.68z"/>
			<path style="fill:#3D4B60;" d="M207.899,479.79c-0.03-0.24-0.11-0.48-0.22-0.69c-0.18-0.369-0.45-0.649-0.82-0.859
				c-0.36-0.2-0.78-0.3-1.24-0.3c-0.48,0-0.9,0.1-1.27,0.29c-0.1,0.05-0.19,0.109-0.29,0.18c-0.25,0.18-0.49,0.42-0.72,0.72v-0.22
				c0-0.21-0.04-0.391-0.11-0.53c-0.08-0.149-0.18-0.26-0.3-0.33c-0.13-0.069-0.27-0.109-0.42-0.109c-0.25,0-0.45,0.079-0.6,0.25
				c-0.15,0.159-0.22,0.409-0.22,0.75v5.079c0,0.341,0.08,0.601,0.25,0.79c0.16,0.181,0.37,0.28,0.62,0.28
				c0.26,0,0.48-0.09,0.64-0.27c0.17-0.181,0.25-0.45,0.25-0.801v-2.199c0-0.721,0.04-1.21,0.13-1.471
				c0.12-0.33,0.31-0.58,0.56-0.77c0.26-0.191,0.55-0.28,0.86-0.28c0.48,0,0.8,0.15,0.96,0.46c0.16,0.311,0.24,0.75,0.24,1.33v2.93
				c0,0.341,0.09,0.601,0.25,0.79c0.16,0.181,0.37,0.28,0.64,0.28c0.25,0,0.46-0.09,0.62-0.27c0.17-0.181,0.25-0.45,0.25-0.801
				v-3.27C207.959,480.36,207.939,480.04,207.899,479.79z"/>
			<path style="fill:#3D4B60;" d="M214.769,482.67c-0.17,0-0.29,0.04-0.38,0.12c-0.22,0.2-0.4,0.37-0.54,0.49
				c-0.14,0.12-0.29,0.229-0.45,0.34c-0.16,0.1-0.33,0.18-0.5,0.23c-0.17,0.051-0.35,0.07-0.55,0.07h-0.01c-0.01,0-0.01,0-0.02,0
				c-0.31,0-0.6-0.08-0.86-0.229c-0.26-0.15-0.47-0.381-0.62-0.69c-0.03-0.06-0.06-0.11-0.08-0.17v-0.01
				c-0.11-0.261-0.16-0.561-0.17-0.87h3.44c0.46,0,0.82-0.07,1.07-0.2s0.38-0.42,0.38-0.86c0-0.479-0.12-0.939-0.37-1.399
				c-0.24-0.46-0.61-0.84-1.1-1.13c-0.49-0.29-1.08-0.431-1.77-0.431c-0.53,0-1.01,0.08-1.44,0.25c-0.43,0.17-0.8,0.42-1.09,0.73
				c-0.3,0.32-0.53,0.7-0.68,1.149c-0.15,0.44-0.23,0.921-0.23,1.44c0,1.1,0.31,1.98,0.94,2.62c0.62,0.64,1.5,0.97,2.63,0.97
				c0.49,0,0.93-0.07,1.31-0.2c0.01,0,0.03-0.01,0.04-0.01c0.36-0.13,0.66-0.29,0.91-0.47c0.25-0.2,0.43-0.4,0.56-0.61
				c0.12-0.22,0.19-0.399,0.19-0.56c0-0.181-0.06-0.32-0.17-0.42C215.099,482.72,214.949,482.67,214.769,482.67z M211.109,479.6
				c0.28-0.3,0.64-0.449,1.07-0.449c0.46,0,0.83,0.149,1.11,0.449c0.29,0.301,0.45,0.75,0.49,1.351h-3.19
				C210.649,480.36,210.819,479.91,211.109,479.6z"/>
			<path style="fill:#3D4B60;" d="M222.639,475.58c-0.14-0.17-0.35-0.25-0.61-0.25c-0.271,0-0.48,0.09-0.62,0.27
				c-0.14,0.19-0.22,0.46-0.22,0.82v2.6c-0.33-0.359-0.66-0.63-1.01-0.81c-0.35-0.17-0.78-0.26-1.28-0.26
				c-0.88,0-1.58,0.31-2.12,0.92c-0.54,0.62-0.81,1.47-0.81,2.57c0,0.52,0.07,1,0.21,1.449c0.13,0.45,0.33,0.841,0.59,1.17
				c0.26,0.33,0.57,0.58,0.93,0.761c0.36,0.18,0.75,0.27,1.17,0.27c0.32,0,0.61-0.05,0.88-0.14c0.27-0.08,0.52-0.21,0.75-0.38
				c0.23-0.17,0.46-0.391,0.69-0.66v0.17c0,0.32,0.08,0.57,0.24,0.75c0.16,0.17,0.35,0.26,0.6,0.26c0.24,0,0.44-0.09,0.59-0.25
				c0.16-0.17,0.24-0.42,0.24-0.76v-7.75C222.859,476,222.779,475.75,222.639,475.58z M220.869,482.75
				c-0.15,0.33-0.36,0.58-0.61,0.74c-0.26,0.16-0.54,0.24-0.85,0.24c-0.3,0-0.58-0.091-0.84-0.261c-0.26-0.17-0.46-0.42-0.61-0.75
				c-0.15-0.34-0.22-0.739-0.22-1.22c0-0.45,0.07-0.85,0.21-1.19c0.14-0.34,0.33-0.6,0.59-0.779c0.25-0.181,0.54-0.28,0.86-0.28
				c0.31,0,0.59,0.09,0.85,0.27c0.26,0.181,0.47,0.44,0.62,0.771c0.15,0.34,0.23,0.74,0.23,1.21
				C221.099,482,221.019,482.41,220.869,482.75z"/>
			<path style="fill:#3D4B60;" d="M233.219,479.57c-0.24-0.521-0.58-0.92-1.02-1.2c-0.44-0.28-0.95-0.42-1.54-0.42
				c-0.5,0-0.93,0.1-1.27,0.28c-0.35,0.18-0.68,0.439-1.01,0.789v-2.689c0-0.32-0.08-0.57-0.22-0.74c-0.15-0.18-0.36-0.26-0.63-0.26
				c-0.25,0-0.45,0.09-0.6,0.27c-0.14,0.181-0.21,0.45-0.21,0.811v7.67c0,0.33,0.07,0.58,0.22,0.75c0.15,0.17,0.34,0.26,0.59,0.26
				s0.45-0.09,0.61-0.26c0.16-0.17,0.24-0.42,0.24-0.75v-0.17c0.19,0.22,0.35,0.39,0.46,0.5c0.12,0.109,0.26,0.22,0.43,0.33
				c0.17,0.1,0.37,0.189,0.61,0.25c0.24,0.06,0.49,0.1,0.76,0.1c0.44,0,0.85-0.09,1.22-0.27c0.36-0.181,0.68-0.431,0.93-0.761
				c0.26-0.319,0.46-0.71,0.59-1.149c0.14-0.45,0.2-0.93,0.2-1.47C233.579,480.72,233.459,480.1,233.219,479.57z M231.339,483.15
				c-0.32,0.39-0.7,0.58-1.14,0.58c-0.52,0-0.94-0.19-1.26-0.57c-0.32-0.37-0.48-0.91-0.48-1.61c0-0.47,0.08-0.89,0.23-1.229
				c0.15-0.351,0.35-0.61,0.61-0.79c0.27-0.181,0.56-0.28,0.9-0.28c0.32,0,0.61,0.1,0.85,0.28c0.25,0.18,0.44,0.439,0.57,0.77
				c0.13,0.34,0.2,0.74,0.2,1.2C231.819,482.22,231.659,482.77,231.339,483.15z"/>
			<path style="fill:#3D4B60;" d="M240.009,478.33c-0.07-0.12-0.16-0.21-0.28-0.28c-0.12-0.069-0.25-0.109-0.38-0.109
				c-0.19,0-0.33,0.029-0.43,0.1c-0.1,0.06-0.2,0.19-0.29,0.37c-0.09,0.189-0.19,0.439-0.3,0.77l-1.41,4.021l-1.49-4.33
				c-0.1-0.3-0.21-0.53-0.34-0.69c-0.13-0.16-0.32-0.239-0.57-0.239c-0.15,0-0.29,0.04-0.42,0.119c-0.14,0.07-0.25,0.181-0.32,0.31
				c-0.08,0.12-0.12,0.26-0.12,0.41c0,0.149,0.07,0.37,0.2,0.689l2.16,5.44l-0.16,0.399c-0.12,0.28-0.22,0.5-0.32,0.65
				c-0.09,0.15-0.19,0.25-0.31,0.31c-0.11,0.061-0.27,0.091-0.47,0.091c-0.09,0-0.18-0.011-0.29-0.04
				c-0.09-0.021-0.19-0.04-0.28-0.04c-0.24,0-0.42,0.06-0.54,0.17c-0.13,0.109-0.19,0.26-0.19,0.46c0,0.3,0.13,0.5,0.39,0.62
				c0.26,0.109,0.64,0.16,1.16,0.16c0.521,0,0.94-0.08,1.25-0.24c0.32-0.16,0.57-0.391,0.75-0.69c0.19-0.3,0.39-0.71,0.58-1.24
				l2.3-6c0.05-0.159,0.1-0.31,0.14-0.46c0.039-0.149,0.06-0.27,0.08-0.35C240.109,478.58,240.079,478.45,240.009,478.33z"/>
		</g>
		<g>
			<path style="fill:#3D4B60;" d="M261.319,478.093h0.419v-0.527c0-0.552,0.067-0.987,0.207-1.313
				c0.139-0.324,0.377-0.56,0.71-0.708c0.332-0.147,0.788-0.222,1.367-0.222c1.029,0,1.54,0.249,1.54,0.755
				c0,0.162-0.054,0.302-0.163,0.417c-0.104,0.115-0.232,0.174-0.378,0.174c-0.067,0-0.188-0.013-0.357-0.04
				c-0.161-0.022-0.307-0.038-0.422-0.038c-0.317,0-0.52,0.096-0.614,0.281c-0.086,0.186-0.132,0.453-0.132,0.803v0.418h0.429
				c0.672,0,1.004,0.201,1.004,0.607c0,0.284-0.086,0.468-0.267,0.545c-0.177,0.078-0.423,0.116-0.737,0.116h-0.429v4.656
				c0,0.347-0.082,0.61-0.25,0.792c-0.164,0.185-0.376,0.275-0.639,0.275c-0.249,0-0.455-0.091-0.622-0.275
				c-0.166-0.182-0.247-0.445-0.247-0.792v-4.656h-0.484c-0.263,0-0.462-0.057-0.605-0.178c-0.142-0.115-0.213-0.271-0.213-0.459
				C260.435,478.302,260.73,478.093,261.319,478.093L261.319,478.093z"/>
			<path style="fill:#3D4B60;" d="M267.072,482.549v1.469c0,0.355-0.09,0.623-0.253,0.8c-0.168,0.18-0.379,0.268-0.636,0.268
				c-0.259,0-0.466-0.089-0.628-0.271c-0.16-0.179-0.244-0.444-0.244-0.796v-4.895c0-0.79,0.284-1.185,0.854-1.185
				c0.294,0,0.503,0.092,0.633,0.276c0.128,0.186,0.199,0.457,0.215,0.819c0.208-0.362,0.423-0.634,0.643-0.819
				c0.225-0.185,0.517-0.276,0.888-0.276c0.372,0,0.727,0.092,1.074,0.276c0.349,0.186,0.522,0.432,0.522,0.735
				c0,0.214-0.075,0.394-0.221,0.53c-0.149,0.142-0.308,0.211-0.478,0.211c-0.067,0-0.225-0.043-0.47-0.122
				c-0.247-0.077-0.467-0.117-0.652-0.117c-0.258,0-0.47,0.069-0.632,0.202c-0.164,0.139-0.291,0.337-0.382,0.601
				c-0.088,0.268-0.148,0.587-0.185,0.952C267.088,481.573,267.072,482.022,267.072,482.549L267.072,482.549z"/>
			<path style="fill:#3D4B60;" d="M275.889,482.67c-0.16,0-0.29,0.04-0.38,0.12c-0.22,0.2-0.399,0.37-0.54,0.479
				c-0.14,0.131-0.279,0.24-0.449,0.341c-0.16,0.109-0.33,0.189-0.5,0.229c-0.181,0.061-0.37,0.08-0.58,0.08
				c-0.311,0-0.601-0.08-0.86-0.229c-0.26-0.16-0.47-0.391-0.63-0.69c-0.15-0.3-0.23-0.66-0.24-1.06h3.44
				c0.46,0,0.819-0.06,1.069-0.19c0.25-0.14,0.38-0.42,0.38-0.86c0-0.479-0.12-0.939-0.37-1.409c-0.239-0.461-0.609-0.83-1.1-1.12
				c-0.49-0.29-1.08-0.431-1.77-0.431c-0.53,0-1.011,0.08-1.441,0.25c-0.43,0.17-0.8,0.41-1.09,0.73c-0.3,0.32-0.53,0.7-0.68,1.14
				c-0.16,0.45-0.23,0.931-0.23,1.45c0,1.1,0.31,1.98,0.941,2.62c0.619,0.64,1.5,0.96,2.63,0.96c0.489,0,0.93-0.061,1.31-0.191
				c0.38-0.13,0.7-0.29,0.95-0.479c0.25-0.2,0.44-0.4,0.57-0.62c0.12-0.21,0.18-0.39,0.18-0.55c0-0.181-0.06-0.32-0.17-0.42
				C276.219,482.72,276.069,482.67,275.889,482.67z M272.228,479.6c0.28-0.3,0.641-0.449,1.07-0.449c0.471,0,0.83,0.149,1.12,0.449
				c0.28,0.29,0.441,0.74,0.48,1.341h-3.19C271.77,480.35,271.939,479.91,272.228,479.6z"/>
			<path style="fill:#3D4B60;" d="M283.199,482.67c-0.16,0-0.29,0.04-0.38,0.12c-0.221,0.2-0.4,0.37-0.54,0.479
				c-0.141,0.131-0.28,0.24-0.45,0.341c-0.16,0.109-0.33,0.189-0.51,0.229c-0.17,0.061-0.36,0.08-0.57,0.08
				c-0.31,0-0.6-0.08-0.86-0.229c-0.26-0.16-0.47-0.391-0.619-0.69c-0.16-0.3-0.24-0.66-0.25-1.06h3.44c0.46,0,0.82-0.06,1.07-0.19
				c0.25-0.14,0.38-0.42,0.38-0.86c0-0.479-0.12-0.939-0.37-1.409c-0.24-0.461-0.61-0.83-1.1-1.12c-0.5-0.29-1.08-0.431-1.771-0.431
				c-0.53,0-1.01,0.08-1.44,0.25c-0.439,0.17-0.8,0.41-1.09,0.73c-0.3,0.32-0.529,0.7-0.68,1.14c-0.16,0.45-0.24,0.931-0.24,1.45
				c0,1.1,0.32,1.98,0.95,2.62c0.62,0.64,1.5,0.96,2.63,0.96c0.49,0,0.93-0.061,1.311-0.191c0.38-0.13,0.699-0.29,0.949-0.479
				c0.25-0.2,0.44-0.4,0.56-0.62c0.13-0.21,0.18-0.39,0.18-0.55c0-0.181-0.05-0.32-0.16-0.42
				C283.529,482.72,283.379,482.67,283.199,482.67z M279.529,479.6c0.29-0.3,0.649-0.449,1.08-0.449c0.46,0,0.83,0.149,1.119,0.449
				c0.28,0.29,0.44,0.74,0.481,1.341h-3.19C279.079,480.35,279.249,479.91,279.529,479.6z"/>
			<path style="fill:#3D4B60;" d="M291.509,481.29c-0.02-0.65-0.149-1.21-0.38-1.7c-0.27-0.53-0.63-0.939-1.08-1.22
				c-0.46-0.28-0.96-0.42-1.5-0.42c-0.45,0-0.85,0.1-1.2,0.29c-0.359,0.189-0.71,0.49-1.04,0.899v-0.21
				c0-0.33-0.069-0.569-0.229-0.739c-0.16-0.171-0.36-0.25-0.61-0.25s-0.449,0.079-0.6,0.239c-0.15,0.17-0.22,0.42-0.22,0.761v7.579
				c0,0.391,0.06,0.671,0.159,0.881c0.11,0.189,0.33,0.29,0.66,0.29c0.561,0,0.84-0.391,0.84-1.16v-2.63
				c0.181,0.22,0.36,0.409,0.551,0.569c0.14,0.12,0.279,0.221,0.43,0.311c0.34,0.2,0.76,0.3,1.26,0.3c0.42,0,0.811-0.08,1.17-0.24
				c0.37-0.17,0.681-0.41,0.95-0.71c0.26-0.31,0.47-0.69,0.63-1.14c0.15-0.45,0.221-0.95,0.221-1.49
				C291.52,481.43,291.52,481.36,291.509,481.29z M289.529,482.71c-0.15,0.34-0.34,0.59-0.601,0.76
				c-0.239,0.17-0.52,0.261-0.81,0.261c-0.06,0-0.12,0-0.17-0.021c-0.42-0.03-0.771-0.229-1.06-0.57
				c-0.33-0.38-0.489-0.93-0.489-1.63c0-0.74,0.159-1.3,0.5-1.689c0.329-0.38,0.739-0.57,1.22-0.57c0.31,0,0.59,0.09,0.84,0.27
				c0.25,0.181,0.44,0.431,0.58,0.771c0.15,0.33,0.22,0.729,0.22,1.19c0,0.43-0.06,0.8-0.189,1.109
				C289.559,482.63,289.549,482.67,289.529,482.71z"/>
			<path style="fill:#3D4B60;" d="M293.909,478.2c-0.17-0.181-0.38-0.26-0.64-0.26c-0.25,0-0.461,0.079-0.62,0.26
				c-0.16,0.18-0.25,0.439-0.25,0.79v5.029c0,0.341,0.09,0.601,0.25,0.79c0.159,0.181,0.37,0.271,0.62,0.271
				c0.26,0,0.47-0.08,0.64-0.271c0.17-0.18,0.25-0.44,0.25-0.79v-5.079C294.159,478.62,294.079,478.38,293.909,478.2z
				 M293.899,475.62c-0.181-0.15-0.38-0.22-0.61-0.22c-0.23,0-0.44,0.08-0.62,0.239c-0.18,0.16-0.27,0.37-0.27,0.62
				c0,0.271,0.09,0.48,0.27,0.63c0.17,0.15,0.38,0.23,0.62,0.23c0.24,0,0.439-0.08,0.62-0.23c0.17-0.149,0.25-0.359,0.25-0.63
				C294.159,475.98,294.069,475.76,293.899,475.62z"/>
			<path style="fill:#3D4B60;" d="M299.827,484.282l-1.548-2.552l-0.954,0.9v1.399c0,0.339-0.09,0.598-0.269,0.779
				c-0.175,0.185-0.384,0.275-0.614,0.275c-0.27,0-0.484-0.089-0.638-0.271c-0.153-0.179-0.232-0.444-0.232-0.796v-7.498
				c0-0.388,0.077-0.685,0.224-0.89c0.151-0.207,0.369-0.307,0.646-0.307c0.271,0,0.483,0.093,0.644,0.279
				c0.158,0.183,0.239,0.456,0.239,0.814v4.265l1.977-2.075c0.245-0.255,0.429-0.435,0.561-0.527
				c0.128-0.095,0.283-0.142,0.467-0.142c0.221,0,0.402,0.07,0.553,0.209c0.143,0.14,0.217,0.316,0.217,0.524
				c0,0.257-0.239,0.603-0.715,1.031l-0.933,0.855l1.802,2.835c0.131,0.213,0.229,0.368,0.287,0.478
				c0.058,0.107,0.088,0.217,0.088,0.313c0,0.28-0.077,0.498-0.23,0.661c-0.152,0.161-0.354,0.24-0.601,0.24
				c-0.214,0-0.382-0.055-0.497-0.174C300.185,484.794,300.024,484.584,299.827,484.282L299.827,484.282z"/>
			<path style="fill:#3D4B60;" d="M303.646,485.085c-0.265,0-0.492-0.086-0.686-0.258c-0.192-0.169-0.291-0.411-0.291-0.722
				c0-0.262,0.094-0.487,0.278-0.675c0.186-0.189,0.412-0.283,0.684-0.283c0.268,0,0.498,0.094,0.692,0.279
				c0.19,0.187,0.286,0.414,0.286,0.679c0,0.307-0.097,0.547-0.286,0.718C304.129,484.999,303.903,485.085,303.646,485.085
				L303.646,485.085z"/>
			<path style="fill:#3D4B60;" d="M312.389,482.909c0,0.218-0.066,0.453-0.197,0.701c-0.13,0.251-0.331,0.486-0.601,0.712
				c-0.268,0.225-0.604,0.408-1.013,0.544c-0.407,0.137-0.868,0.208-1.376,0.208c-1.089,0-1.938-0.318-2.547-0.949
				c-0.607-0.635-0.912-1.484-0.912-2.549c0-0.723,0.138-1.359,0.419-1.914c0.276-0.552,0.681-0.98,1.208-1.283
				c0.527-0.304,1.162-0.454,1.894-0.454c0.456,0,0.873,0.066,1.255,0.2c0.38,0.132,0.7,0.306,0.966,0.515
				c0.262,0.213,0.465,0.436,0.603,0.672c0.14,0.238,0.208,0.462,0.208,0.669c0,0.209-0.077,0.388-0.232,0.534
				c-0.159,0.146-0.35,0.22-0.568,0.22c-0.148,0-0.27-0.039-0.367-0.113c-0.097-0.076-0.206-0.196-0.324-0.367
				c-0.215-0.324-0.438-0.57-0.675-0.731c-0.232-0.164-0.528-0.245-0.89-0.245c-0.517,0-0.939,0.202-1.257,0.608
				c-0.316,0.403-0.477,0.962-0.477,1.663c0,0.331,0.043,0.637,0.124,0.913c0.079,0.276,0.197,0.513,0.353,0.708
				c0.156,0.194,0.342,0.342,0.561,0.443c0.22,0.103,0.461,0.152,0.721,0.152c0.353,0,0.655-0.081,0.905-0.244
				c0.255-0.163,0.477-0.411,0.669-0.747c0.107-0.197,0.222-0.351,0.345-0.463c0.124-0.111,0.277-0.169,0.458-0.169
				c0.215,0,0.393,0.083,0.533,0.245C312.316,482.551,312.389,482.727,312.389,482.909L312.389,482.909z"/>
			<path style="fill:#3D4B60;" d="M319.728,480.06c-0.159-0.43-0.39-0.81-0.699-1.13c-0.311-0.319-0.681-0.56-1.11-0.729
				c-0.44-0.181-0.92-0.26-1.45-0.26c-0.529,0-1.01,0.079-1.439,0.25c-0.431,0.17-0.801,0.409-1.11,0.729
				c-0.3,0.311-0.54,0.691-0.7,1.13c-0.16,0.44-0.24,0.931-0.24,1.46c0,0.53,0.08,1.01,0.231,1.45c0.17,0.43,0.4,0.81,0.72,1.13
				c0.3,0.32,0.681,0.57,1.101,0.74c0.42,0.17,0.899,0.26,1.439,0.26c0.53,0,1.01-0.09,1.45-0.26c0.42-0.17,0.79-0.41,1.101-0.73
				c0.31-0.319,0.55-0.699,0.709-1.14c0.16-0.44,0.24-0.93,0.24-1.45C319.969,480.98,319.889,480.5,319.728,480.06z M317.739,483.17
				c-0.32,0.41-0.74,0.61-1.271,0.61c-0.359,0-0.66-0.09-0.92-0.271c-0.26-0.189-0.46-0.45-0.6-0.8c-0.141-0.34-0.21-0.74-0.21-1.2
				c0-0.46,0.069-0.87,0.21-1.22c0.14-0.34,0.34-0.61,0.609-0.79c0.261-0.17,0.56-0.26,0.91-0.26c0.53,0,0.95,0.2,1.271,0.6
				c0.31,0.4,0.47,0.96,0.47,1.67C318.209,482.22,318.049,482.77,317.739,483.17z"/>
			<path style="fill:#3D4B60;" d="M326.677,481.642v2.336c0,0.371-0.082,0.645-0.251,0.832c-0.169,0.185-0.387,0.276-0.662,0.276
				c-0.267,0-0.484-0.092-0.645-0.276c-0.168-0.188-0.252-0.461-0.252-0.832v-2.8c0-0.442-0.015-0.787-0.043-1.033
				c-0.031-0.239-0.114-0.443-0.246-0.598c-0.133-0.16-0.345-0.238-0.631-0.238c-0.576,0-0.953,0.196-1.136,0.597
				c-0.182,0.391-0.275,0.958-0.275,1.699v2.373c0,0.364-0.083,0.642-0.245,0.829c-0.169,0.186-0.385,0.279-0.654,0.279
				c-0.268,0-0.485-0.094-0.655-0.279c-0.17-0.188-0.255-0.465-0.255-0.829v-5.028c0-0.331,0.076-0.583,0.228-0.753
				c0.155-0.174,0.356-0.259,0.602-0.259c0.242,0,0.441,0.084,0.605,0.241c0.16,0.161,0.24,0.384,0.24,0.667v0.166
				c0.308-0.362,0.634-0.631,0.978-0.8c0.351-0.177,0.733-0.262,1.161-0.262c0.441,0,0.82,0.089,1.137,0.264
				c0.318,0.177,0.579,0.444,0.787,0.798c0.298-0.358,0.616-0.625,0.955-0.8c0.339-0.175,0.714-0.262,1.127-0.262
				c0.478,0,0.895,0.097,1.242,0.284c0.346,0.189,0.605,0.46,0.778,0.81c0.149,0.32,0.224,0.82,0.224,1.503v3.431
				c0,0.371-0.083,0.645-0.249,0.832c-0.167,0.185-0.39,0.276-0.664,0.276c-0.268,0-0.483-0.094-0.653-0.279
				c-0.17-0.188-0.255-0.465-0.255-0.829v-2.956c0-0.378-0.017-0.68-0.047-0.906c-0.032-0.229-0.12-0.421-0.26-0.574
				c-0.144-0.154-0.359-0.232-0.646-0.232c-0.232,0-0.452,0.072-0.66,0.208c-0.208,0.135-0.371,0.323-0.488,0.551
				C326.743,480.364,326.677,480.89,326.677,481.642L326.677,481.642z"/>
		</g>
		<g>
			<path style="fill:#3D4B60;" d="M251.675,474.353c0.34,0,0.59,0.026,0.878,0.075l0.081-0.517c0,0-0.794-0.244-1.837-0.159
				l-0.082-0.281c0.324-0.068,0.567-0.357,0.567-0.701c0-0.395-0.321-0.714-0.716-0.714c-0.395,0-0.716,0.319-0.716,0.714
				c0,0.345,0.243,0.633,0.567,0.701l0.09,0.313c-1.107,0.152-1.989,0.585-1.989,0.585l0.156,0.478
				c0.67-0.224,1.252-0.358,1.778-0.416C250.97,474.377,251.358,474.353,251.675,474.353z"/>
			<path style="fill:#3D4B60;" d="M245.529,476.968l0.004-0.005c0.026-0.034,0.051-0.065,0.077-0.097l-0.212-0.153l-0.33-0.241
				c-0.019,0.025-0.539,0.504-0.95,1.388c-0.018-0.027-0.038-0.055-0.061-0.081c-0.123-0.134-0.295-0.202-0.514-0.198
				c-0.003,0-0.006,0-0.01,0c-0.135,0-0.228-0.046-0.289-0.101c0.061-0.076,0.097-0.173,0.097-0.28c0-0.249-0.203-0.453-0.454-0.453
				c-0.249,0-0.453,0.204-0.453,0.453c0,0.251,0.204,0.454,0.453,0.454c0.04,0,0.077-0.007,0.113-0.014
				c0.111,0.123,0.288,0.232,0.547,0.226c0.133-0.001,0.231,0.033,0.296,0.105c0.075,0.082,0.1,0.2,0.108,0.29
				c-0.001,0.001-0.001,0.003-0.002,0.003c-0.295,0.807-0.211,1.81-0.211,1.81l0.716,0.028c0.015-0.365,0.067-1.004,0.252-1.512
				C245.064,477.608,245.511,476.994,245.529,476.968z"/>
			<path style="fill:#3D4B60;" d="M257.909,474.952c-0.249,0-0.453,0.202-0.453,0.453c0,0.039,0.006,0.076,0.016,0.112
				c-0.124,0.112-0.232,0.29-0.228,0.549c0.002,0.134-0.032,0.23-0.104,0.296c-0.058,0.051-0.13,0.078-0.2,0.096
				c-0.533-0.747-1.191-1.203-1.191-1.203l-0.514,0.551c0.389,0.354,0.785,0.797,1.171,1.349c0.267,0.382,0.542,0.875,0.77,1.366
				l0.693-0.33c0,0-0.316-0.783-0.763-1.485c0.077-0.027,0.155-0.069,0.225-0.13c0.136-0.123,0.202-0.296,0.198-0.514
				c-0.001-0.142,0.045-0.236,0.101-0.3c0.077,0.06,0.174,0.098,0.279,0.098c0.252,0,0.454-0.204,0.454-0.454
				C258.363,475.154,258.161,474.952,257.909,474.952z"/>
			<path style="fill:#3D4B60;" d="M256.108,481.189c-0.955,0.466-2.527,1.08-4.596,1.369c-0.812,0.112-1.599,0.154-2.324,0.154
				c-0.942,0-1.775-0.07-2.414-0.151c-0.729-0.092-1.3-0.204-1.648-0.283c0.084,0.266,0.186,0.529,0.308,0.785
				c0.002,0.007,0.005,0.014,0.008,0.019c0.015,0.029,0.029,0.061,0.044,0.091c0.015,0.029,0.029,0.059,0.044,0.086
				c0.004,0.008,0.008,0.016,0.012,0.022c0.205,0.387,0.452,0.742,0.732,1.05c0.976,1.067,1.97,1.236,1.98,1.237l0.016,0.002
				l0.015,0.005c0.009,0.004,0.89,0.288,2.23,0.288c1.319,0,2.613-0.266,3.845-0.791c0.913-0.467,1.777-1.177,2.205-1.81
				c0.331-0.489,0.57-1.012,0.712-1.555c0.075-0.288,0.135-0.75,0.1-1.236C257.108,480.651,256.684,480.908,256.108,481.189z"/>
			<path style="fill:#3D4B60;" d="M256.089,477.37c-1.35-1.94-2.819-2.44-3.569-2.56c-0.29-0.05-0.521-0.069-0.841-0.069
				c-0.31,0-0.68,0.02-1.189,0.069c-0.5,0.051-1.06,0.19-1.71,0.41c-0.92,0.3-1.74,0.78-2.39,1.38l-0.02,0.02
				c-0.1,0.09-0.3,0.28-0.53,0.57c-0.03,0.04-0.45,0.63-0.77,1.529c-0.25,0.681-0.24,1.66-0.24,1.67c0,0.23,0.02,0.46,0.04,0.691
				c0,0,0,0,0,0.01c0.01,0.03,0.01,0.05,0.01,0.08c0.02,0.16,0.05,0.32,0.08,0.48c0.48,0.119,3.31,0.779,6.47,0.34
				c1.99-0.28,3.49-0.86,4.41-1.311c0.76-0.359,1.25-0.699,1.44-0.84C257.089,479.15,256.569,478.05,256.089,477.37z
				 M248.569,480.51c-1.06,0-1.91-0.85-1.91-1.91c0-1.05,0.85-1.899,1.91-1.899c1.05,0,1.91,0.85,1.91,1.899
				C250.479,479.66,249.619,480.51,248.569,480.51z M254.149,479.11c-0.65,0-1.181-0.53-1.181-1.191c0-0.65,0.53-1.18,1.181-1.18
				c0.649,0,1.18,0.529,1.18,1.18C255.329,478.58,254.799,479.11,254.149,479.11z"/>
		</g>
	</g>
</g>
</svg>
